<svg xmlns:inkscape="http://www.inkscape.org/namespaces/inkscape" xmlns:sodipodi="http://sodipodi.sourceforge.net/DTD/sodipodi-0.dtd" xmlns="http://www.w3.org/2000/svg" xmlns:svg="http://www.w3.org/2000/svg" viewBox="0 0 8.46667 10.5833375" version="1.1" x="0px" y="0px"><g transform="translate(-115.32175,-75.050563)"><path style="color:#000000;" d="M 119.55457 76.124916 C 118.76128 76.124923 118.1133 76.774239 118.11331 77.568239 C 118.11332 78.362231 118.76129 79.011555 119.55457 79.011562 C 120.34785 79.011568 120.99634 78.36224 120.99634 77.568239 C 120.99635 76.774229 120.34786 76.12491 119.55457 76.124916 z " fill="#000000" stroke-linecap="round" stroke-linejoin="round"/><path style="" d="m 118.79791,79.252553 c -0.98893,0 -1.79637,0.8108 -1.79637,1.80079 v 0.25092 c 0,0.43198 0.35731,0.78934 0.78935,0.78934 h 0.63551 a 0.21865765,0.21865765 135 0 0 0.21866,-0.218658 v -0.06439 c 0,-0.50263 0.40747,-0.91009 0.9101,-0.91009 0.50263,0 0.91008,0.40746 0.91008,0.91009 l 0,0.06439 a 0.21865765,0.21865765 45 0 0 0.21866,0.218658 h 0.63662 c 0.43202,0 0.78767,-0.35736 0.78767,-0.78934 v -0.25092 c 0,-0.98998 -0.8074,-1.80079 -1.79636,-1.80079 z" fill="#000000" stroke="none"/><path style="color:#000000;" d="m 119.55572,81.161178 a 0.26458354,0.26458362 0 0 0 -0.26438,0.264384 v 0.768957 a 0.26458354,0.26458362 0 0 0 0.26438,0.264394 0.26458354,0.26458362 0 0 0 0.26439,-0.264394 v -0.768957 a 0.26458354,0.26458362 0 0 0 -0.26439,-0.264384 z" fill="#000000" stroke-width="1" stroke-linecap="round" stroke-linejoin="round"/><path style="color:#000000;" d="m 119.17032,81.546591 a 0.26458354,0.26458362 0 0 0 -0.2644,0.264384 0.26458354,0.26458362 0 0 0 0.2644,0.264384 h 0.76895 a 0.26458354,0.26458362 0 0 0 0.26439,-0.264384 0.26458354,0.26458362 0 0 0 -0.26439,-0.264384 z" fill="#000000" stroke-width="1" stroke-linecap="round" stroke-linejoin="round"/></g><text x="0" y="23.46667" fill="#000000" font-size="5px" font-weight="bold" font-family="'Helvetica Neue', Helvetica, Arial-Unicode, Arial, Sans-serif">Created by Meko</text><text x="0" y="28.46667" fill="#000000" font-size="5px" font-weight="bold" font-family="'Helvetica Neue', Helvetica, Arial-Unicode, Arial, Sans-serif">from the Noun Project</text></svg>